<svg xmlns="http://www.w3.org/2000/svg" fill="none" viewBox="0 0 54 34">
      <path
        fill="#45EBFA"
        d="M16.038 1.65 28.44 14.94 15.15 27.342 2.746 14.052z"
      />
      <path
        fill="#FBFDFF"
        fillRule="evenodd"
        d="M7.89 0H0l12.153 21.54v11.78h6.996V21.54l9.146-16.21v27.99H42.53c2.495 0 4.594-.401 6.297-1.204 1.702-.803 2.988-1.893 3.855-3.27C53.561 27.457 54 25.879 54 24.11c0-1.638-.347-3.048-1.041-4.23-.694-1.193-1.6-2.12-2.717-2.782a7.462 7.462 0 0 0-3.563-1.074V15.7c1.16-.26 2.19-.7 3.091-1.318a6.74 6.74 0 0 0 2.148-2.408c.52-.987.78-2.131.78-3.433 0-1.67-.412-3.145-1.236-4.425-.824-1.29-2.055-2.3-3.693-3.026C46.131.363 44.087 0 41.636 0H23.41l-7.598 14.35h-.325L7.89 0Zm33.192 27.56H35.34v-8.85h5.905c1.128 0 2.099.2 2.912.601.825.402 1.46.955 1.904 1.66.444.705.667 1.518.667 2.44 0 1.258-.45 2.267-1.35 3.026-.9.748-2.332 1.123-4.296 1.123Zm-.52-13.617H35.34V5.694h5.352c1.562 0 2.766.369 3.612 1.106.856.738 1.285 1.709 1.285 2.913 0 .878-.222 1.632-.667 2.261-.434.629-1.03 1.117-1.79 1.464-.748.336-1.605.505-2.57.505Z"
        clipRule="evenodd"
      />
    </svg>