<svg xmlns="http://www.w3.org/2000/svg" fill="none" viewBox="0 0 24 24">
      <path
        fill="#fff"
        d="M22 5.898a8.32 8.32 0 0 1-2.356.635A4.06 4.06 0 0 0 21.448 4.3a8.272 8.272 0 0 1-2.606.98 4.125 4.125 0 0 0-2.328-1.225 4.162 4.162 0 0 0-2.605.424 4.066 4.066 0 0 0-1.803 1.898 3.98 3.98 0 0 0-.256 2.586 11.8 11.8 0 0 1-4.684-1.225 11.62 11.62 0 0 1-3.773-2.995 3.987 3.987 0 0 0-.071 3.936 4.063 4.063 0 0 0 1.34 1.456 4.144 4.144 0 0 1-1.858-.505v.052a4 4 0 0 0 .928 2.558 4.117 4.117 0 0 0 2.364 1.401 4.198 4.198 0 0 1-1.853.07 4.043 4.043 0 0 0 1.46 2.006 4.149 4.149 0 0 0 2.373.797 8.319 8.319 0 0 1-5.097 1.73c-.327 0-.654-.02-.979-.057A11.742 11.742 0 0 0 8.29 20c7.548 0 11.674-6.153 11.674-11.489a11.5 11.5 0 0 0-.012-.521 8.269 8.269 0 0 0 2.046-2.09L22 5.898Z"
      />
    </svg>